<svg width="512" height="512" viewBox="0 0 512 512" xmlns="http://www.w3.org/2000/svg">
  <rect width="512" height="512" rx="100" fill="#2980b9"/>
  <path d="M150 180h50v150h-50zM231 130h50v200h-50zM312 80h50v250h-50z" fill="rgba(255,255,255,0.3)"/>
  <path d="M256 160c-44 0-80 36-80 80s36 80 80 80 80-36 80-80-36-80-80-80zm0 120c-22 0-40-18-40-40s18-40 40-40 40 18 40 40-18 40-40 40z" fill="white"/>
  <text x="50%" y="85%" text-anchor="middle" font-family="Arial, sans-serif" font-size="90" font-weight="bold" fill="white">JAY</text>
</svg>
